<svg width="367" height="367" viewBox="0 0 367 367" fill="none" xmlns="http://www.w3.org/2000/svg">
<g clip-path="url(#clip0_66_62)">
<path d="M367 0H0V367H367V0Z" fill="#FF7D63"/>
<path d="M367 0H0V367H367V0Z" fill="#E80C0C" fill-opacity="0.44"/>
<path d="M155.026 172.739H142.44V167.03H137.757V199.97H142.879V211.975H112.147V199.97H117.269V167.03H112.586V172.739H100V155.025H155.026V172.739ZM185.047 213C176.12 213 169.217 210.658 164.339 205.973C159.51 201.288 157.095 193.797 157.095 183.5C157.095 173.203 159.51 165.712 164.339 161.027C169.217 156.342 176.12 154 185.047 154C193.974 154 200.852 156.342 205.682 161.027C210.56 165.712 212.999 173.203 212.999 183.5C212.999 193.797 210.56 201.288 205.682 205.973C200.852 210.658 193.974 213 185.047 213ZM185.047 199.97C186.705 199.97 187.949 199.531 188.779 198.653C189.608 197.774 190.023 196.408 190.023 194.553V172.447C190.023 170.592 189.608 169.226 188.779 168.347C187.949 167.469 186.705 167.03 185.047 167.03C183.389 167.03 182.145 167.469 181.315 168.347C180.486 169.226 180.071 170.592 180.071 172.447V194.553C180.071 196.457 180.486 197.847 181.315 198.726C182.145 199.556 183.389 199.97 185.047 199.97ZM215.486 199.97H219.145V167.03H215.486V155.025H247.609C253.902 155.025 258.707 156.391 262.024 159.124C265.342 161.808 267 166.176 267 172.227C267 178.278 265.342 182.67 262.024 185.403C258.707 188.087 253.902 189.429 247.609 189.429H239.633V199.97H246.658V211.975H215.486V199.97ZM242.121 179.035C244.95 179.035 246.365 177.473 246.365 174.35V171.715C246.365 170.104 245.999 168.933 245.268 168.201C244.585 167.42 243.536 167.03 242.121 167.03H239.633V179.035H242.121Z" fill="white"/>
</g>
<defs>
<clipPath id="clip0_66_62">
<rect width="367" height="367" fill="white"/>
</clipPath>
</defs>
</svg>
