<svg width="293" height="104" viewBox="0 0 293 104" fill="none" xmlns="http://www.w3.org/2000/svg">
<path d="M96.256 32.768H74.24V22.784H66.048V80.384H75.008V101.376H21.248V80.384H30.208V22.784H22.016V32.768H0V1.79199H96.256V32.768ZM148.771 103.168C133.155 103.168 121.08 99.072 112.547 90.88C104.099 82.688 99.875 69.589 99.875 51.584C99.875 33.579 104.099 20.48 112.547 12.288C121.08 4.09599 133.155 0 148.771 0C164.387 0 176.419 4.09599 184.867 12.288C193.4 20.48 197.667 33.579 197.667 51.584C197.667 69.589 193.4 82.688 184.867 90.88C176.419 99.072 164.387 103.168 148.771 103.168ZM148.771 80.384C151.672 80.384 153.848 79.616 155.299 78.08C156.75 76.544 157.475 74.155 157.475 70.912V32.256C157.475 29.013 156.75 26.624 155.299 25.088C153.848 23.552 151.672 22.784 148.771 22.784C145.87 22.784 143.694 23.552 142.243 25.088C140.792 26.624 140.067 29.013 140.067 32.256V70.912C140.067 74.24 140.792 76.672 142.243 78.208C143.694 79.659 145.87 80.384 148.771 80.384ZM202.018 80.384H208.418V22.784H202.018V1.79199H258.21C269.218 1.79199 277.623 4.18102 283.426 8.96002C289.229 13.653 292.13 21.291 292.13 31.872C292.13 42.453 289.229 50.133 283.426 54.912C277.623 59.605 269.218 61.952 258.21 61.952H244.258V80.384H256.546V101.376H202.018V80.384ZM248.61 43.776C253.559 43.776 256.034 41.045 256.034 35.584V30.976C256.034 28.16 255.394 26.112 254.114 24.832C252.919 23.467 251.085 22.784 248.61 22.784H244.258V43.776H248.61Z" fill="#F54B3D"/>
</svg>
