<svg width="60" height="60" viewBox="0 0 60 60" fill="none" xmlns="http://www.w3.org/2000/svg">
<g clip-path="url(#clip0_66_63)">
<path d="M60 0H0V60H60V0Z" fill="#FF7D63"/>
<path d="M60 0H0V60H60V0Z" fill="#E80C0C" fill-opacity="0.44"/>
<path d="M25.3448 27.7415H23.2872V26.8083H22.5216V32.1916H23.359V34.1536H18.3346V32.1916H19.172V26.8083H18.4064V27.7415H16.3488V24.8464H25.3448V27.7415ZM30.2529 34.321C28.7934 34.321 27.6649 33.9382 26.8674 33.1726C26.0778 32.407 25.6831 31.1827 25.6831 29.5C25.6831 27.8172 26.0778 26.593 26.8674 25.8274C27.6649 25.0618 28.7934 24.679 30.2529 24.679C31.7124 24.679 32.8369 25.0618 33.6264 25.8274C34.4239 26.593 34.8227 27.8172 34.8227 29.5C34.8227 31.1827 34.4239 32.407 33.6264 33.1726C32.8369 33.9382 31.7124 34.321 30.2529 34.321ZM30.2529 32.1916C30.524 32.1916 30.7274 32.1199 30.863 31.9763C30.9986 31.8328 31.0664 31.6095 31.0664 31.3064V27.6936C31.0664 27.3905 30.9986 27.1672 30.863 27.0237C30.7274 26.8801 30.524 26.8083 30.2529 26.8083C29.9818 26.8083 29.7784 26.8801 29.6428 27.0237C29.5072 27.1672 29.4394 27.3905 29.4394 27.6936V31.3064C29.4394 31.6174 29.5072 31.8447 29.6428 31.9883C29.7784 32.1239 29.9818 32.1916 30.2529 32.1916ZM35.2293 32.1916H35.8275V26.8083H35.2293V24.8464H40.481C41.5099 24.8464 42.2954 25.0697 42.8377 25.5164C43.3801 25.955 43.6512 26.6688 43.6512 27.6577C43.6512 28.6466 43.3801 29.3644 42.8377 29.811C42.2954 30.2496 41.5099 30.469 40.481 30.469H39.1771V32.1916H40.3255V34.1536H35.2293V32.1916ZM39.5838 28.7703C40.0464 28.7703 40.2777 28.515 40.2777 28.0046V27.574C40.2777 27.3108 40.2179 27.1194 40.0982 26.9998C39.9865 26.8722 39.8151 26.8083 39.5838 26.8083H39.1771V28.7703H39.5838Z" fill="white"/>
</g>
<defs>
<clipPath id="clip0_66_63">
<rect width="60" height="60" rx="14" fill="white"/>
</clipPath>
</defs>
</svg>
