<svg width="167" height="59" viewBox="0 0 167 59" fill="none" xmlns="http://www.w3.org/2000/svg">
<path d="M55.026 18.7395H42.4403V13.0298H37.7572V45.9702H42.8793V57.9752H12.1467V45.9702H17.2688V13.0298H12.5857V18.7395H0V1.02481H55.026V18.7395ZM85.0469 59C76.1198 59 69.217 56.6576 64.339 51.9727C59.5096 47.2878 57.0949 39.7968 57.0949 29.5C57.0949 19.2033 59.5096 11.7122 64.339 7.02729C69.217 2.34243 76.1198 0 85.0469 0C93.974 0 100.852 2.34243 105.682 7.02729C110.56 11.7122 112.999 19.2033 112.999 29.5C112.999 39.7968 110.56 47.2878 105.682 51.9727C100.852 56.6576 93.974 59 85.0469 59ZM85.0469 45.9702C86.7053 45.9702 87.9493 45.531 88.7787 44.6526C89.6082 43.7742 90.0227 42.408 90.0227 40.5534V18.4467C90.0227 16.592 89.6082 15.2258 88.7787 14.3474C87.9493 13.469 86.7053 13.0298 85.0469 13.0298C83.3885 13.0298 82.1446 13.469 81.3151 14.3474C80.4856 15.2258 80.0712 16.592 80.0712 18.4467V40.5534C80.0712 42.4566 80.4856 43.8474 81.3151 44.7258C82.1446 45.5556 83.3885 45.9702 85.0469 45.9702ZM115.486 45.9702H119.145V13.0298H115.486V1.02481H147.609C153.902 1.02481 158.707 2.39105 162.024 5.12408C165.342 7.80793 167 12.176 167 18.2271C167 24.2781 165.342 28.6702 162.024 31.4032C158.707 34.0871 153.902 35.4293 147.609 35.4293H139.633V45.9702H146.658V57.9752H115.486V45.9702ZM142.121 25.0347C144.95 25.0347 146.365 23.4729 146.365 20.3499V17.7146C146.365 16.1042 145.999 14.933 145.268 14.201C144.585 13.4204 143.536 13.0298 142.121 13.0298H139.633V25.0347H142.121Z" fill="white"/>
</svg>
